<?xml version="1.0" encoding="UTF-8" standalone="no"?>
<!-- Created with Inkscape (http://www.inkscape.org/) -->

<svg
   version="1.1"
   id="svg1"
   width="454.50381"
   height="481.582"
   viewBox="0 0 454.50381 481.582"
   xmlns="http://www.w3.org/2000/svg"
   xmlns:svg="http://www.w3.org/2000/svg">
  <defs
     id="defs1" />
  <g
     id="g1"
     transform="translate(-36.739838,-9.2757435)">
    <g
       id="g4"
       transform="translate(-1.4713486,1.4713482)"
       style="display:inline">
      <path
         style="fill:#f9fbfa"
         d="m 479.5964,165.44788 c -55.01713,-313.36646 47.91722,272.92688 0,0 z M 262.97135,347.81981 c -17.56346,-1.63617 -46.53314,-8.8413 -50.05431,-12.44913 -1.08088,-1.10749 -0.88225,-3.70135 1.13657,-14.84203 3.77539,-20.83418 4.72472,-40.53104 3.2051,-66.5 -0.70805,-12.1 -1.28736,-34.825 -1.28736,-50.5 v -28.5 l 10.5,-0.23034 c 5.775,-0.12669 16.51,-0.70487 23.85555,-1.28484 9.99459,-0.78913 13.70647,-0.76327 14.75,0.10278 0.96657,0.80218 1.39944,3.49779 1.41072,8.78485 0.009,4.19515 0.44415,12.80128 0.96712,19.12472 0.72481,8.76413 0.66152,11.78274 -0.26627,12.69851 -0.66942,0.66074 -6.13572,1.69807 -12.14734,2.30519 -6.01162,0.60712 -11.29912,1.33185 -11.75,1.61051 -0.45088,0.27866 -0.81978,6.98274 -0.81978,14.89795 0,12.46649 0.22583,14.51767 1.68848,15.33621 0.93117,0.52111 6.02452,0.706 11.35602,0.41221 6.71761,-0.37016 9.88406,-0.18236 10.37714,0.61547 1.06842,1.72873 1.82048,18.45587 0.88936,19.78062 -0.44605,0.63461 -4.861,1.85172 -9.811,2.70469 -11.4423,1.97172 -12.67913,3.21486 -11.91201,11.97282 0.29717,3.39276 0.76209,7.24916 1.03314,8.56979 l 0.49284,2.40113 13.19301,-0.82952 c 7.25616,-0.45624 15.8832,-0.86175 19.1712,-0.90114 l 5.97818,-0.0716 0.71419,4 c 0.3928,2.2 0.74012,14.41436 0.77182,27.14301 0.0503,20.21537 -0.14247,23.2198 -1.52416,23.75 -1.6243,0.6233 -14.79087,0.56212 -21.91821,-0.10185 z m 31.66539,-10.04116 c -0.60294,-4.8125 -1.56181,-15.6125 -2.13082,-24 -0.56902,-8.3875 -1.49819,-22.1125 -2.06483,-30.5 -0.56664,-8.3875 -1.686,-20.2 -2.48747,-26.25 -0.80146,-6.05 -2.12367,-18.65 -2.93824,-28 -0.81456,-9.35 -1.96542,-21.725 -2.55747,-27.5 -0.59204,-5.775 -0.94371,-14.74745 -0.7815,-19.93877 l 0.29494,-9.43878 3.20516,-0.8282 c 1.76284,-0.45551 14.81284,-0.70806 29,-0.56122 l 25.79484,0.26697 0.27533,16.36701 c 0.17586,10.45398 -0.10729,16.82806 -0.78376,17.64315 -0.70856,0.85376 -4.80423,1.39502 -12.37446,1.63533 -15.29952,0.48567 -15.07072,0.25567 -14.26779,14.34246 0.80287,14.08577 0.50903,13.8373 15.29619,12.93394 13.42782,-0.82032 13.35449,-0.8864 13.35449,12.03381 0,10.21384 0.14372,10.09324 -13.1985,11.07512 -5.4305,0.39964 -9.12318,1.15186 -9.8289,2.00219 -1.68026,2.02459 0.75361,20.4247 2.80583,21.21221 0.83086,0.31883 7.82514,-0.41031 15.54284,-1.62032 11.64327,-1.82547 14.25757,-1.97463 15.35605,-0.87615 0.72812,0.72812 1.75969,4.68252 2.29239,8.78755 1.13827,8.77165 1.33382,40.93848 0.25915,42.62764 -1.09921,1.72773 -15.87434,7.99483 -26.71687,11.33237 -10.44175,3.21417 -23.91225,6.00369 -28.99163,6.00369 H 295.733 Z M 193.97135,327.33796 c -4.93293,-2.78681 -16.52036,-10.54215 -21.96554,-14.7013 -7.34373,-5.6093 -24.53446,-22.97505 -24.53446,-24.78424 0,-0.95756 1.73396,-1.32377 6.26786,-1.32377 10.76658,0 16.2662,-5.73898 14.25866,-14.87924 -0.6886,-3.13516 -5.49211,-9.77297 -13.62741,-18.83124 -2.86096,-3.18555 -5.95471,-8.23771 -7.9607,-13 -2.85323,-6.77366 -3.29071,-8.96324 -3.35454,-16.78952 -0.0663,-8.12698 0.2602,-9.77531 3.36573,-16.99273 2.68608,-6.24259 4.82201,-9.36206 9.75457,-14.2463 13.15117,-13.02232 23.55212,-17.23798 42.56727,-17.25317 9.40413,-0.008 9.81342,0.0844 10.88833,2.44351 1.31715,2.89083 -0.54724,34.53565 -2.21871,37.65882 -0.88824,1.65968 -2.22907,1.88987 -11.00836,1.88987 -18.57122,0 -24.62821,5.40518 -18.63751,16.63187 1.49866,2.80853 4.65166,5.85114 9.84468,9.5 15.63202,10.98379 16.5912,11.88286 20.01937,18.76475 3.20435,6.43257 3.2992,6.99234 3.66704,21.64054 0.40178,15.99941 0.1047,17.80606 -5.24611,31.90406 -2.78664,7.34209 -6.88109,13.57909 -8.88106,13.52837 -0.65951,-0.0167 -2.09911,-0.53885 -3.19911,-1.16028 z m 167.04769,-19.55931 c -0.36586,-9.2125 -1.09036,-23.5 -1.60999,-31.75 -1.64621,-26.1365 -3.10592,-83.57034 -2.4178,-95.13115 l 0.66254,-11.13116 5.65878,-0.55252 c 3.11233,-0.30389 18.59628,-0.59958 34.40878,-0.65708 l 28.75,-0.10456 0.158,2.78824 c 0.0869,1.53353 0.31324,4.58823 0.50298,6.78823 0.18975,2.2 0.42,17.05 0.51168,33 0.12066,20.99092 -0.16606,29.6214 -1.03817,31.25 -1.00896,1.88418 -2.05273,2.25502 -6.41968,2.28088 -5.19355,0.0308 -17.73186,1.41672 -22.96481,2.53851 -1.84078,0.39461 -2.75,1.22451 -2.75,2.51007 0,2.35717 0.34277,2.35414 11.44934,-0.1011 11.44207,-2.5294 21.35022,-2.66426 22.25635,-0.30292 1.58073,4.11931 -20.75104,41.32456 -24.80431,41.32456 -0.39843,0 -0.87674,-4.91366 -1.06291,-10.91924 -0.18616,-6.00559 -0.68977,-11.26938 -1.11912,-11.69732 -1.26893,-1.26473 -7.90682,-0.68849 -8.88511,0.77133 -0.49582,0.73988 -0.77387,8.9276 -0.61787,18.19493 l 0.28363,16.8497 -5,4.40818 c -6.62136,5.83763 -21.95435,16.39242 -23.81334,16.39242 -1.21321,0 -1.59136,-2.96128 -2.13897,-16.75 z m 50.95231,-97.25 v -19.5 l -9.85242,-0.28745 c -5.7789,-0.1686 -10.36926,0.1415 -11.10249,0.75002 -1.47994,1.22825 -0.91735,34.34179 0.63411,37.32299 0.81165,1.55963 2.15603,1.74943 10.62501,1.5 l 9.69579,-0.28556 z m -245.50502,-40.972 c -6.09163,-1.55539 -13.01013,-6.10719 -20.41729,-13.43287 -8.23704,-8.14644 -11.30893,-13.73034 -12.18978,-22.1579 -0.56858,-5.43985 -0.35421,-6.40637 2.49117,-11.23216 10.36006,-17.5707 27.66005,-35.153129 48.12092,-48.906558 6.21387,-4.176853 12.62852,-7.336657 13.37618,-6.588999 1.2493,1.249303 0.68093,23.999072 -0.62618,25.063852 -0.6875,0.560039 -4.59139,1.531459 -8.6753,2.158711 -9.16456,1.407594 -12.95386,3.156989 -18.48748,8.535044 -7.42428,7.21558 -9.42853,17.74301 -5.11042,26.84275 3.73452,7.86991 11.87684,10.28928 24.3451,7.23378 3.81496,-0.93491 8.22819,-1.55219 9.80719,-1.37174 2.52408,0.28846 3.02687,0.93214 4.16189,5.32809 0.71003,2.75 1.56128,9.12279 1.89166,14.16175 l 0.60068,9.16174 -8.39166,2.70404 c -9.10876,2.93512 -24.3603,4.16943 -30.89668,2.50047 z m 47.51067,-4.01886 c -1.36684,-2.21159 -1.91102,-23.81577 -0.63852,-25.34905 0.73293,-0.88312 4.20398,-1.56977 9.65398,-1.90979 4.68028,-0.29199 9.17769,-1.08536 9.99424,-1.76304 3.10183,-2.57429 1.2347,-37.623881 -2.53203,-47.531127 -1.21623,-3.198919 -3.12308,-3.109802 -12.02755,0.562106 -4.02561,1.66003 -7.62609,2.67253 -8.00105,2.25 -1.84053,-2.073996 -3.17947,-8.775668 -3.67734,-18.405885 -0.65408,-12.65157 -1.44328,-11.730859 14.72262,-17.175844 12.32336,-4.150743 26.6139,-7.191345 40.3174,-8.578342 10.56364,-1.069196 12.15663,-0.861911 13.21172,1.719152 1.13312,2.771956 1.70079,23.3835 0.76214,27.672681 l -0.87536,4 -7.71073,0.629864 c -4.2409,0.346425 -8.45267,1.245618 -9.35949,1.998206 -1.47991,1.228221 -1.58746,3.85276 -1.05028,25.629759 0.32915,13.34378 0.8739,24.70709 1.21055,25.2518 0.34064,0.55117 5.2268,0.99037 11.01788,0.99037 12.90038,0 12.64324,-0.33026 12.25796,15.74366 l -0.28179,11.75634 -14,1.13362 c -26.00526,2.1057 -52.12408,2.78365 -52.99435,1.37552 z m 141.32402,-4.66415 c -2.56868,-0.24643 -5.14314,-1.01777 -5.72103,-1.71408 -1.34106,-1.61589 0.31617,-42.90626 2.43349,-60.630909 2.17681,-18.222652 4.05707,-28.999199 5.27161,-30.21374 2.74996,-2.749964 42.18626,26.984007 42.18626,31.807379 0,1.13012 -2.35014,1.40636 -11.96482,1.40636 -10.8058,0 -12.06509,0.18737 -13,1.93426 -2.96412,5.53851 -0.70671,7.41665 9.66125,8.03808 l 8.80357,0.52766 0.29381,7.25 0.29381,7.25 -3.79381,0.009 c -2.0866,0.005 -6.17757,0.29498 -9.09105,0.64489 l -5.29723,0.63619 0.29723,5.10512 0.29724,5.10511 13.08988,-0.0921 c 7.19943,-0.0507 15.08452,-0.36552 17.52241,-0.69967 6.83638,-0.93703 7.3385,-0.21823 7.72532,11.05887 0.26119,7.61461 0.015,10.11039 -1.08772,11.02554 -1.46937,1.21947 -48.30579,2.47478 -57.92022,1.55238 z m -52.82967,-4.06265 c -1.925,-0.23371 -3.89818,-0.81352 -4.38483,-1.28847 -0.51268,-0.50034 -0.12498,-14.57801 0.92181,-33.47117 1.57918,-28.502126 1.62387,-32.790416 0.35497,-34.059315 -0.87189,-0.871892 -4.53472,-1.712287 -9.1711,-2.104204 -4.67,-0.39476 -8.17594,-1.202607 -8.87508,-2.045014 -1.20158,-1.447813 -0.54582,-29.25775 0.80648,-34.201981 0.64224,-2.348132 0.80428,-2.378715 9.75042,-1.840212 19.45767,1.171234 57.31746,12.229168 59.26738,17.310577 0.64513,1.68119 -1.94204,18.010168 -3.82911,24.16745 -0.88912,2.901101 -1.3903,3.248136 -4.66849,3.232637 -2.01985,-0.0095 -6.80382,-0.680686 -10.63104,-1.491413 -4.10875,-0.870365 -7.32611,-1.106521 -7.856,-0.576637 -0.52988,0.529885 -0.22255,5.748032 0.75043,12.741412 0.90632,6.5142 1.8996,13.869 2.20731,16.344 0.3077,2.475 1.4672,8.775 2.57667,14 1.10947,5.225 2.07638,12.65 2.14869,16.5 l 0.13149,7 -13,0.10364 c -7.15,0.057 -14.575,-0.0876 -16.5,-0.3213 z"
         id="path6" />
      <path
         style="display:inline;fill:#09bd5c"
         d="m 260.97135,348.90387 c -22.36608,-3.12689 -41.99598,-8.14624 -49.93313,-12.76786 -2.23678,-1.30243 -7.66687,-3.86039 -12.06687,-5.68435 -20.35043,-8.43603 -45.99681,-30.79569 -58.98182,-51.42301 -13.75111,-21.84431 -20.38656,-38.7389 -23.56533,-60 -2.36859,-15.84228 -2.45033,-25.66634 -0.34246,-41.16169 3.00176,-22.06647 14.35315,-50.30015 26.89172,-66.88631 7.87431,-10.41622 21.22335,-23.84044 30.9514,-31.1257 9.10482,-6.818531 21.75763,-14.27359 26.33594,-15.517189 2.0408,-0.554338 4.38555,-1.580338 5.21055,-2.279999 4.54586,-3.855234 21.90504,-9.645878 39.17902,-13.069274 28.1321,-5.57528 59.1837,-3.394369 88.32098,6.203228 11.78501,3.881893 32.49207,14.600165 43.42194,22.47582 15.96198,11.501611 21.14894,16.873859 36.11611,37.406234 6.1803,8.47831 15.4582,26.59442 19.05522,37.20739 9.10419,26.86179 9.65042,62.01005 1.34324,86.43415 -1.34008,3.94001 -2.43651,8.02803 -2.43651,9.0845 0,6.42585 -19.64379,39.21745 -26.81414,44.76113 -1.47722,1.1421 -4.96281,4.74258 -7.74574,8.00107 -7.8753,9.22106 -27.55786,24.13551 -35.3971,26.82215 -1.90134,0.65162 -4.37634,2.00274 -5.5,3.00248 -4.93959,4.39487 -31.61369,13.65237 -46.53374,16.14998 -10.97034,1.83643 -40.70765,3.31815 -47.50928,2.36725 z m 23.91821,-0.98221 c 1.38169,-0.5302 1.5745,-3.53463 1.52416,-23.75 -0.0317,-12.72865 -0.37902,-24.94301 -0.77182,-27.14301 l -0.71419,-4 -5.97818,0.0716 c -3.288,0.0394 -11.91504,0.4449 -19.1712,0.90114 l -13.19301,0.82952 -0.49284,-2.40113 c -0.27105,-1.32063 -0.73597,-5.17703 -1.03314,-8.56979 -0.76712,-8.75796 0.46971,-10.0011 11.91201,-11.97282 4.95,-0.85297 9.36495,-2.07008 9.811,-2.70469 0.93112,-1.32475 0.17906,-18.05189 -0.88936,-19.78062 -0.49308,-0.79783 -3.65953,-0.98563 -10.37714,-0.61547 -5.3315,0.29379 -10.42485,0.1089 -11.35602,-0.41221 -1.46265,-0.81854 -1.68848,-2.86972 -1.68848,-15.33621 0,-7.91521 0.3689,-14.61929 0.81978,-14.89795 0.45088,-0.27866 5.73838,-1.00339 11.75,-1.61051 6.01162,-0.60712 11.47792,-1.64445 12.14734,-2.30519 0.92779,-0.91577 0.99108,-3.93438 0.26627,-12.69851 -0.52297,-6.32344 -0.95817,-14.92957 -0.96712,-19.12472 -0.0113,-5.28706 -0.44415,-7.98267 -1.41072,-8.78485 -1.04353,-0.86605 -4.75541,-0.89191 -14.75,-0.10278 -7.34555,0.57997 -18.08055,1.15815 -23.85555,1.28484 l -10.5,0.23034 v 28.5 c 0,15.675 0.57931,38.4 1.28736,50.5 1.51962,25.96896 0.57029,45.66582 -3.2051,66.5 -2.01882,11.14068 -2.21745,13.73454 -1.13657,14.84203 3.52117,3.60783 32.49085,10.81296 50.05431,12.44913 7.12734,0.66397 20.29391,0.72515 21.91821,0.10185 z m 25.477,-2.93262 c 15.18373,-2.8803 42.25235,-12.52508 44.33365,-15.79645 1.07467,-1.68916 0.87912,-33.85599 -0.25915,-42.62764 -0.5327,-4.10503 -1.56427,-8.05943 -2.29239,-8.78755 -1.09848,-1.09848 -3.71278,-0.94932 -15.35605,0.87615 -7.7177,1.21001 -14.71198,1.93915 -15.54284,1.62032 -2.05222,-0.78751 -4.48609,-19.18762 -2.80583,-21.21221 0.70572,-0.85033 4.3984,-1.60255 9.8289,-2.00219 13.34222,-0.98188 13.1985,-0.86128 13.1985,-11.07512 0,-12.92021 0.0733,-12.85413 -13.35449,-12.03381 -14.78716,0.90336 -14.49332,1.15183 -15.29619,-12.93394 -0.80293,-14.08679 -1.03173,-13.85679 14.26779,-14.34246 7.57023,-0.24031 11.6659,-0.78157 12.37446,-1.63533 0.67647,-0.81509 0.95962,-7.18917 0.78376,-17.64315 l -0.27533,-16.36701 -25.79484,-0.26697 c -14.18716,-0.14684 -27.23716,0.10571 -29,0.56122 l -3.20516,0.8282 -0.29494,9.43878 c -0.16221,5.19132 0.18946,14.16377 0.7815,19.93877 0.59205,5.775 1.74291,18.15 2.55747,27.5 0.81457,9.35 2.13678,21.95 2.93824,28 0.80147,6.05 1.92083,17.8625 2.48747,26.25 0.56664,8.3875 1.49581,22.1125 2.06483,30.5 0.56901,8.3875 1.52788,19.1875 2.13082,24 l 1.09626,8.75 h 3.25871 c 1.79229,0 6.91097,-0.69282 11.37485,-1.53961 z M 200.8933,325.21987 c 1.38805,-1.81983 3.70925,-6.43233 5.15822,-10.25 5.35081,-14.098 5.64789,-15.90465 5.24611,-31.90406 -0.36784,-14.6482 -0.46269,-15.20797 -3.66704,-21.64054 -3.42817,-6.88189 -4.38735,-7.78096 -20.01937,-18.76475 -5.19302,-3.64886 -8.34602,-6.69147 -9.84468,-9.5 -5.9907,-11.22669 0.0663,-16.63187 18.63751,-16.63187 8.77929,0 10.12012,-0.23019 11.00836,-1.88987 1.67147,-3.12317 3.53586,-34.76799 2.21871,-37.65882 -1.07491,-2.35916 -1.4842,-2.45102 -10.88833,-2.44351 -19.01515,0.0152 -29.4161,4.23085 -42.56727,17.25317 -4.93256,4.88424 -7.06849,8.00371 -9.75457,14.2463 -3.10553,7.21742 -3.43201,8.86575 -3.36573,16.99273 0.0638,7.82628 0.50131,10.01586 3.35454,16.78952 2.00599,4.76229 5.09974,9.81445 7.9607,13 8.1353,9.05827 12.93881,15.69608 13.62741,18.83124 2.00754,9.14026 -3.49208,14.87924 -14.25866,14.87924 -4.5339,0 -6.26786,0.36621 -6.26786,1.32377 0,1.80919 17.19073,19.17494 24.53446,24.78424 5.44518,4.15915 17.03261,11.91449 21.96554,14.7013 3.12542,1.76567 4.21364,1.43268 6.92195,-2.11809 z m 172.40825,-6.68334 c 4.76839,-3.29566 10.9198,-7.9758 13.6698,-10.4003 l 5,-4.40818 -0.28363,-16.8497 c -0.156,-9.26733 0.12205,-17.45505 0.61787,-18.19493 0.97829,-1.45982 7.61618,-2.03606 8.88511,-0.77133 0.42935,0.42794 0.93296,5.69173 1.11912,11.69732 0.18617,6.00558 0.66448,10.91924 1.06291,10.91924 4.05327,0 26.38504,-37.20525 24.80431,-41.32456 -0.90613,-2.36134 -10.81428,-2.22648 -22.25635,0.30292 -11.10657,2.45524 -11.44934,2.45827 -11.44934,0.1011 0,-1.28556 0.90922,-2.11546 2.75,-2.51007 5.23295,-1.12179 17.77126,-2.50776 22.96481,-2.53851 4.36695,-0.0259 5.41072,-0.3967 6.41968,-2.28088 0.87211,-1.6286 1.15883,-10.25908 1.03817,-31.25 -0.0917,-15.95 -0.32193,-30.8 -0.51168,-33 -0.18974,-2.2 -0.41608,-5.2547 -0.50298,-6.78823 l -0.158,-2.78824 -28.75,0.10456 c -15.8125,0.0575 -31.29645,0.35319 -34.40878,0.65708 l -5.65878,0.55252 -0.66254,11.13116 c -0.68812,11.56081 0.77159,68.99465 2.4178,95.13115 0.51963,8.25 1.24413,22.5375 1.60999,31.75 0.54761,13.78872 0.92576,16.75 2.13897,16.75 0.81056,0 5.37516,-2.69645 10.14354,-5.99212 z m 18.349,-89.72232 c -1.55146,-2.9812 -2.11405,-36.09474 -0.63411,-37.32299 0.73323,-0.60852 5.32359,-0.91862 11.10249,-0.75002 l 9.85242,0.28745 v 19.5 19.5 l -9.69579,0.28556 c -8.46898,0.24943 -9.81336,0.0596 -10.62501,-1.5 z m -194.28754,-61.75803 8.39166,-2.70404 -0.60068,-9.16174 c -0.33038,-5.03896 -1.18163,-11.41175 -1.89166,-14.16175 -1.13502,-4.39595 -1.63781,-5.03963 -4.16189,-5.32809 -1.579,-0.18045 -5.99223,0.43683 -9.80719,1.37174 -12.46826,3.0555 -20.61058,0.63613 -24.3451,-7.23378 -4.31811,-9.09974 -2.31386,-19.62717 5.11042,-26.84275 5.53362,-5.378055 9.32292,-7.12745 18.48748,-8.535044 4.08391,-0.627252 7.9878,-1.598672 8.6753,-2.158711 1.30711,-1.06478 1.87548,-23.814549 0.62618,-25.063852 -0.74766,-0.747658 -7.16231,2.412146 -13.37618,6.588999 -20.46087,13.753429 -37.76086,31.335858 -48.12092,48.906558 -2.84538,4.82579 -3.05975,5.79231 -2.49117,11.23216 0.88085,8.42756 3.95274,14.01146 12.18978,22.1579 7.40716,7.32568 14.32566,11.87748 20.41729,13.43287 6.53638,1.66896 21.78792,0.43465 30.89668,-2.50047 z m 69.60834,-2.89391 14,-1.13362 0.28179,-11.75634 c 0.38528,-16.07392 0.64242,-15.74366 -12.25796,-15.74366 -5.79108,0 -10.67724,-0.4392 -11.01788,-0.99037 -0.33665,-0.54471 -0.8814,-11.90802 -1.21055,-25.2518 -0.53718,-21.776999 -0.42963,-24.401538 1.05028,-25.629759 0.90682,-0.752588 5.11859,-1.651781 9.35949,-1.998206 l 7.71073,-0.629864 0.87536,-4 c 0.93865,-4.289181 0.37098,-24.900725 -0.76214,-27.672681 -1.05509,-2.581063 -2.64808,-2.788348 -13.21172,-1.719152 -13.7035,1.386997 -27.99404,4.427599 -40.3174,8.578342 -16.1659,5.444985 -15.3767,4.524274 -14.72262,17.175844 0.49787,9.630217 1.83681,16.331889 3.67734,18.405885 0.37496,0.42253 3.97544,-0.58997 8.00105,-2.25 8.90447,-3.671908 10.81132,-3.761025 12.02755,-0.562106 3.76673,9.907246 5.63386,44.956837 2.53203,47.531127 -0.81655,0.67768 -5.31396,1.47105 -9.99424,1.76304 -5.45,0.34002 -8.92105,1.02667 -9.65398,1.90979 -1.2725,1.53328 -0.72832,23.13746 0.63852,25.34905 0.87027,1.40813 26.98909,0.73018 52.99435,-1.37552 z m 146.24989,-4.84101 c 1.10269,-0.91515 1.34891,-3.41093 1.08772,-11.02554 -0.38682,-11.2771 -0.88894,-11.9959 -7.72532,-11.05887 -2.43789,0.33415 -10.32298,0.649 -17.52241,0.69967 l -13.08988,0.0921 -0.29724,-5.10511 -0.29723,-5.10512 5.29723,-0.63619 c 2.91348,-0.34991 7.00445,-0.64011 9.09105,-0.64489 l 3.79381,-0.009 -0.29381,-7.25 -0.29381,-7.25 -8.80357,-0.52766 c -10.36796,-0.62143 -12.62537,-2.49957 -9.66125,-8.03808 0.93491,-1.74689 2.1942,-1.93426 13,-1.93426 9.61468,0 11.96482,-0.27624 11.96482,-1.40636 0,-4.823372 -39.4363,-34.557343 -42.18626,-31.807379 -1.21454,1.214541 -3.0948,11.991088 -5.27161,30.21374 -2.11732,17.724649 -3.77455,59.015019 -2.43349,60.630909 1.57595,1.8989 7.85485,2.20216 36.30364,1.75339 17.92992,-0.28285 26.35135,-0.77317 27.33761,-1.59169 z m -81.38138,-9.29261 c -0.0723,-3.85 -1.03922,-11.275 -2.14869,-16.5 -1.10947,-5.225 -2.26897,-11.525 -2.57667,-14 -0.30771,-2.475 -1.30099,-9.8298 -2.20731,-16.344 -0.97298,-6.99338 -1.28031,-12.211527 -0.75043,-12.741412 0.52989,-0.529884 3.74725,-0.293728 7.856,0.576637 3.82722,0.810727 8.61119,1.481863 10.63104,1.491413 3.27819,0.0155 3.77937,-0.331536 4.66849,-3.232637 1.88707,-6.157282 4.47424,-22.48626 3.82911,-24.16745 -1.94992,-5.081409 -39.80971,-16.139343 -59.26738,-17.310577 -8.94614,-0.538503 -9.10818,-0.50792 -9.75042,1.840212 -1.3523,4.944231 -2.00806,32.754168 -0.80648,34.201981 0.69914,0.842407 4.20508,1.650254 8.87508,2.045014 4.63638,0.391917 8.29921,1.232312 9.1711,2.104204 1.2689,1.268899 1.22421,5.557189 -0.35497,34.059315 -1.04679,18.89316 -1.43449,32.97083 -0.92181,33.47117 1.34876,1.3163 6.6305,1.72341 20.88483,1.60977 l 13,-0.10364 z"
         id="path5" />
      <path
         style="display:inline;fill:#024d23"
         d="m 119.97135,488.83287 c -8.60506,-1.13621 -22.698139,-4.74512 -29.359799,-7.51838 -15.756539,-6.55946 -32.7165,-20.19675 -42.415235,-34.10555 -6.346853,-9.10192 -8.640312,-13.78352 -9.37374,-19.13446 l -0.611389,-4.46056 7.880081,-8.37982 c 4.334044,-4.60891 24.867581,-26.19314 45.630081,-47.96497 20.762501,-21.77184 37.750001,-40.21612 37.750001,-40.9873 0,-0.77118 -2.51555,-4.29363 -5.59011,-7.82766 -23.74414,-27.29259 -38.597999,-59.3128 -43.932953,-94.70554 -1.928839,-12.79616 -1.903642,-39.37016 0.04976,-52.47656 3.710215,-24.89382 12.034821,-47.73959 25.079983,-68.82866 C 144.43535,38.817592 218.43661,2.4362496 296.26557,8.4496179 c 49.85257,3.8518051 95.91586,24.7396531 130.23051,59.0543031 24.89722,24.897222 41.52909,54.470619 50.41703,89.647339 2.11236,8.3603 4.55824,30.02617 4.55824,40.37739 0,38.79225 -13.43826,78.53361 -37.23365,110.11216 -23.51876,31.21144 -58.52604,56.18322 -96.61408,68.9178 -41.80634,13.97778 -88.9978,14.56722 -130.65227,1.63189 -6.05,-1.87876 -13.28408,-4.33378 -16.07574,-5.4556 -2.79165,-1.12183 -5.5411,-1.73966 -6.10988,-1.37297 -0.56878,0.3667 -11.73376,21.14172 -24.81108,46.16672 -13.07731,25.025 -26.48699,50.675 -29.79929,57 -3.31231,6.325 -6.69549,12.2875 -7.51818,13.25 -1.47451,1.72509 -5.23701,2.03776 -12.68583,1.05422 z M 295.48063,348.15999 c 8.95459,-0.60046 19.82232,-2.67972 30.49072,-5.83361 11.86186,-3.50672 26.18113,-9.39345 29.04302,-11.93974 1.12366,-0.99974 3.59866,-2.35086 5.5,-3.00248 7.83924,-2.68664 27.5218,-17.60109 35.3971,-26.82215 2.78293,-3.25849 6.26852,-6.85897 7.74574,-8.00107 7.17035,-5.54368 26.81414,-38.33528 26.81414,-44.76113 0,-1.05647 1.09643,-5.14449 2.43651,-9.0845 8.30718,-24.4241 7.76095,-59.57236 -1.34324,-86.43415 C 427.9676,141.66819 418.6897,123.55208 412.5094,115.07377 397.54223,94.541395 392.35527,89.169147 376.39329,77.667536 365.46342,69.791881 344.75636,59.073609 332.97135,55.191716 303.83407,45.594119 272.78247,43.413208 244.65037,48.988488 c -17.27398,3.423396 -34.63316,9.21404 -39.17902,13.069274 -0.825,0.699661 -3.16975,1.725661 -5.21055,2.279999 -4.57831,1.243599 -17.23112,8.698658 -26.33594,15.517189 -9.72805,7.28526 -23.07709,20.70948 -30.9514,31.1257 -12.53857,16.58616 -23.88996,44.81984 -26.89172,66.88631 -2.10787,15.49535 -2.02613,25.31941 0.34246,41.16169 3.17877,21.2611 9.81422,38.15569 23.56533,60 12.98501,20.62732 38.63139,42.98698 58.98182,51.42301 4.4,1.82396 9.83009,4.38192 12.06687,5.68435 7.93715,4.62162 27.56705,9.64097 49.93313,12.76786 2.97818,0.41636 23.94739,-0.0356 34.50928,-0.74388 z"
         id="path4" />
    </g>
  </g>
</svg>
